<svg width="177" height="83" viewBox="0 0 177 83" fill="none" xmlns="http://www.w3.org/2000/svg">
<g filter="url(#filter0_d_1_796)">
<path d="M148.99 0.000990325L4.00195 0V67.7143L31.9851 79V67.7143L177 67.7153V28.2153C177 24.5078 176.276 20.8366 174.868 17.4117C173.46 13.9868 171.396 10.8752 168.795 8.25491C166.193 5.6346 163.105 3.55694 159.707 2.14068C156.309 0.724414 152.667 -0.0026714 148.99 0.000990325Z" fill="#87C879"/>
</g>
<path d="M60.7231 38.425C60.7231 39.299 60.5851 40.104 60.3091 40.84C60.0484 41.5913 59.6651 42.243 59.1591 42.795C58.6684 43.347 58.0628 43.7763 57.3421 44.083C56.6368 44.405 55.8471 44.566 54.9731 44.566H53.5241C51.8068 44.566 50.4728 44.037 49.5221 42.979C48.5714 41.921 48.0961 40.472 48.0961 38.632V34.515H50.4191V38.54C50.4191 39.0767 50.4804 39.5597 50.6031 39.989C50.7258 40.4183 50.9174 40.7863 51.1781 41.093C51.4541 41.3997 51.8068 41.6373 52.2361 41.806C52.6808 41.9747 53.2174 42.059 53.8461 42.059H54.8581C55.5021 42.059 56.0464 41.9593 56.4911 41.76C56.9511 41.576 57.3191 41.3153 57.5951 40.978C57.8864 40.656 58.0934 40.2727 58.2161 39.828C58.3388 39.3987 58.4001 38.9387 58.4001 38.448V32.261H60.7231V38.425ZM55.3181 31.916H52.7191V29.57H55.3181V31.916ZM66.1606 39C65.7313 39 65.3173 38.9463 64.9186 38.839C64.5353 38.7163 64.198 38.517 63.9066 38.241C63.6153 37.965 63.3853 37.6047 63.2166 37.16C63.048 36.7 62.9636 36.1327 62.9636 35.458V24.74H65.3096V34.883C65.3096 35.3737 65.417 35.7647 65.6316 36.056C65.8616 36.332 66.199 36.47 66.6436 36.47H67.1726C67.51 36.47 67.6786 36.8763 67.6786 37.689C67.6786 38.563 67.51 39 67.1726 39H66.1606ZM68.3933 23.682L75.3163 21.06L75.6843 22.716L68.5083 25.476L68.3933 23.682ZM72.4183 36.47C72.8323 36.47 73.1159 36.3857 73.2693 36.217C73.4379 36.0483 73.5223 35.8413 73.5223 35.596C73.5223 35.366 73.4763 35.1437 73.3843 34.929C73.3076 34.699 73.1313 34.4537 72.8553 34.193L68.5083 29.846V27.224L76.1213 24.349L76.6503 26.695L70.7853 28.857L74.1663 32.284C74.8563 32.974 75.4466 33.5567 75.9373 34.032C76.4433 34.5073 76.8803 34.8983 77.2483 35.205C77.6316 35.5117 77.9613 35.757 78.2373 35.941C78.5286 36.1097 78.7969 36.2323 79.0423 36.309C79.2876 36.3857 79.5253 36.4317 79.7553 36.447C80.0006 36.4623 80.2766 36.47 80.5833 36.47C80.7826 36.47 80.9129 36.5773 80.9743 36.792C81.0509 36.9913 81.0893 37.2903 81.0893 37.689C81.0893 38.1337 81.0509 38.4633 80.9743 38.678C80.9129 38.8927 80.7826 39 80.5833 39C80.1233 39 79.7016 38.977 79.3183 38.931C78.9503 38.885 78.5899 38.793 78.2373 38.655C77.8846 38.5017 77.5089 38.2793 77.1103 37.988C76.7116 37.6813 76.2593 37.275 75.7533 36.769C75.6459 37.5663 75.3009 38.1413 74.7183 38.494C74.1509 38.8313 73.4763 39 72.6943 39H66.7143C66.5149 39 66.3846 38.9003 66.3233 38.701C66.2466 38.4863 66.2083 38.1797 66.2083 37.781C66.2083 37.3363 66.2466 37.0067 66.3233 36.792C66.3846 36.5773 66.5149 36.47 66.7143 36.47H72.4183ZM82.2287 36.47C83.256 36.47 83.7697 35.9717 83.7697 34.975V32.261H86.1157V35.136C86.1157 36.4087 85.7937 37.3747 85.1497 38.034C84.5057 38.678 83.601 39 82.4357 39H80.1127C79.9133 39 79.783 38.9003 79.7217 38.701C79.645 38.4863 79.6067 38.1797 79.6067 37.781C79.6067 37.3363 79.645 37.0067 79.7217 36.792C79.783 36.5773 79.9133 36.47 80.1127 36.47H82.2287ZM85.7937 43.83H83.4247V41.576H85.7937V43.83ZM82.4817 43.83H80.1127V41.576H82.4817V43.83ZM88.3571 24.74H90.7031V39H88.3571V24.74ZM96.0959 38.632C96.0959 39.46 95.9502 40.2343 95.6589 40.955C95.3829 41.6757 94.9919 42.3043 94.4859 42.841C93.9952 43.3777 93.4049 43.7993 92.7149 44.106C92.0402 44.4127 91.3119 44.566 90.5299 44.566H89.0809L88.9659 42.059H89.9319C90.6219 42.059 91.2122 41.9593 91.7029 41.76C92.1782 41.576 92.5692 41.323 92.8759 41.001C93.1825 40.679 93.4049 40.311 93.5429 39.897C93.6809 39.483 93.7499 39.0613 93.7499 38.632V32.261H96.0959V38.632ZM100.669 35.458C100.669 35.0133 100.723 34.5917 100.83 34.193C100.953 33.7943 101.121 33.3957 101.336 32.997C101.566 32.5983 101.85 32.1997 102.187 31.801C102.524 31.387 102.915 30.9423 103.36 30.467L102.302 29.409L103.889 27.707C104.84 28.6423 105.629 29.455 106.258 30.145C106.902 30.835 107.416 31.4637 107.799 32.031C108.182 32.583 108.451 33.1043 108.604 33.595C108.773 34.0857 108.857 34.5917 108.857 35.113C108.857 35.6803 108.75 36.2017 108.535 36.677C108.32 37.1523 108.029 37.5663 107.661 37.919C107.293 38.2563 106.848 38.5247 106.327 38.724C105.821 38.908 105.269 39 104.671 39C104.073 39 103.529 38.9157 103.038 38.747C102.547 38.5783 102.126 38.3407 101.773 38.034C101.42 37.712 101.144 37.3363 100.945 36.907C100.761 36.4777 100.669 35.9947 100.669 35.458ZM106.511 34.929C106.511 34.745 106.488 34.5687 106.442 34.4C106.396 34.216 106.312 34.0167 106.189 33.802C106.066 33.5873 105.882 33.3497 105.637 33.089C105.407 32.813 105.108 32.491 104.74 32.123C104.357 32.491 104.05 32.8207 103.82 33.112C103.59 33.388 103.414 33.641 103.291 33.871C103.168 34.0857 103.084 34.285 103.038 34.469C103.007 34.6377 102.992 34.8063 102.992 34.975C102.992 35.3737 103.138 35.7263 103.429 36.033C103.72 36.3243 104.157 36.47 104.74 36.47C105.307 36.47 105.744 36.3167 106.051 36.01C106.358 35.7033 106.511 35.343 106.511 34.929ZM113.853 38.632C113.853 39.46 113.707 40.2343 113.416 40.955C113.14 41.6757 112.749 42.3043 112.243 42.841C111.752 43.3777 111.162 43.7993 110.472 44.106C109.797 44.4127 109.069 44.566 108.287 44.566H106.838L106.723 42.059H107.689C108.379 42.059 108.969 41.9593 109.46 41.76C109.935 41.576 110.326 41.323 110.633 41.001C110.939 40.679 111.162 40.311 111.3 39.897C111.438 39.483 111.507 39.0613 111.507 38.632V32.261H113.853V38.632ZM117.905 42.059C118.488 42.059 118.986 41.9747 119.4 41.806C119.829 41.6527 120.182 41.438 120.458 41.162C120.734 40.886 120.949 40.5563 121.102 40.173C121.255 39.805 121.347 39.414 121.378 39H119.814C119.017 39 118.365 38.9157 117.859 38.747C117.353 38.5783 116.954 38.333 116.663 38.011C116.372 37.6737 116.165 37.2673 116.042 36.792C115.935 36.3167 115.881 35.78 115.881 35.182C115.881 34.584 115.965 34.0243 116.134 33.503C116.303 32.9663 116.548 32.4987 116.87 32.1C117.207 31.7013 117.621 31.387 118.112 31.157C118.603 30.9117 119.17 30.789 119.814 30.789C120.335 30.789 120.826 30.8733 121.286 31.042C121.761 31.2107 122.175 31.479 122.528 31.847C122.881 32.215 123.157 32.6903 123.356 33.273C123.571 33.8557 123.678 34.5687 123.678 35.412V38.632C123.678 39.414 123.548 40.1653 123.287 40.886C123.026 41.6067 122.651 42.2353 122.16 42.772C121.685 43.324 121.094 43.761 120.389 44.083C119.684 44.405 118.894 44.566 118.02 44.566H115.697L115.559 42.059H117.905ZM118.135 35.021C118.135 35.5577 118.25 35.9333 118.48 36.148C118.725 36.3627 119.201 36.47 119.906 36.47H121.424V35.389C121.424 34.5917 121.271 34.032 120.964 33.71C120.673 33.388 120.259 33.227 119.722 33.227C119.216 33.227 118.825 33.3803 118.549 33.687C118.273 33.9937 118.135 34.4383 118.135 35.021ZM129.089 39C128.66 39 128.246 38.9463 127.847 38.839C127.464 38.7163 127.126 38.517 126.835 38.241C126.544 37.965 126.314 37.6047 126.145 37.16C125.976 36.7 125.892 36.1327 125.892 35.458V24.74H128.238V34.883C128.238 35.3737 128.345 35.7647 128.56 36.056C128.79 36.332 129.127 36.47 129.572 36.47H130.101C130.438 36.47 130.607 36.8763 130.607 37.689C130.607 38.563 130.438 39 130.101 39H129.089ZM130.655 36.47C131.713 36.47 132.242 35.9717 132.242 34.975V32.261H134.565V34.975C134.565 35.5117 134.726 35.895 135.048 36.125C135.385 36.355 135.768 36.47 136.198 36.47C137.348 36.47 137.923 35.9717 137.923 34.975V32.261H140.269V34.975C140.269 35.5117 140.407 35.895 140.683 36.125C140.974 36.355 141.311 36.47 141.695 36.47C142.661 36.47 143.144 35.9717 143.144 34.975V32.261H145.49V34.975C145.49 35.5117 145.651 35.895 145.973 36.125C146.31 36.355 146.686 36.47 147.1 36.47H147.629C147.828 36.47 147.958 36.5773 148.02 36.792C148.096 36.9913 148.135 37.2903 148.135 37.689C148.135 38.1337 148.096 38.4633 148.02 38.678C147.958 38.8927 147.828 39 147.629 39H147.1C146.517 39 145.98 38.908 145.49 38.724C145.014 38.5247 144.6 38.1337 144.248 37.551C143.88 38.1337 143.458 38.5247 142.983 38.724C142.523 38.908 142.093 39 141.695 39C141.158 39 140.667 38.908 140.223 38.724C139.793 38.5247 139.402 38.1337 139.05 37.551C138.682 38.1337 138.245 38.5247 137.739 38.724C137.248 38.908 136.734 39 136.198 39C135.615 39 135.078 38.908 134.588 38.724C134.112 38.5247 133.698 38.1337 133.346 37.551C132.978 38.1337 132.564 38.5247 132.104 38.724C131.644 38.908 131.153 39 130.632 39H129.643C129.443 39 129.313 38.9003 129.252 38.701C129.175 38.4863 129.137 38.1797 129.137 37.781C129.137 37.3363 129.175 37.0067 129.252 36.792C129.313 36.5773 129.443 36.47 129.643 36.47H130.655ZM140.292 26.35H137.854V24.119H140.292V26.35ZM141.902 29.57H139.51V27.316H141.902V29.57ZM138.613 29.57H136.221V27.316H138.613V29.57ZM147.381 36.47C147.902 36.47 148.308 36.3703 148.6 36.171C148.891 35.9563 149.037 35.6113 149.037 35.136V34.63C149.037 34.0167 149.121 33.4493 149.29 32.928C149.474 32.4067 149.734 31.962 150.072 31.594C150.409 31.226 150.815 30.9423 151.291 30.743C151.781 30.5283 152.326 30.421 152.924 30.421C153.552 30.421 154.104 30.5283 154.58 30.743C155.07 30.9423 155.477 31.2337 155.799 31.617C156.121 31.985 156.366 32.4297 156.535 32.951C156.703 33.4723 156.788 34.0397 156.788 34.653C156.788 36.033 156.435 37.1063 155.73 37.873C155.04 38.6243 154.097 39 152.901 39C152.287 39 151.697 38.885 151.13 38.655C150.578 38.4097 150.156 38.0263 149.865 37.505C149.573 38.103 149.198 38.5017 148.738 38.701C148.278 38.9003 147.825 39 147.381 39H147.174C146.974 39 146.844 38.9003 146.783 38.701C146.706 38.4863 146.668 38.1797 146.668 37.781C146.668 37.3363 146.706 37.0067 146.783 36.792C146.844 36.5773 146.974 36.47 147.174 36.47H147.381ZM154.534 34.814C154.534 34.2927 154.411 33.8557 154.166 33.503C153.936 33.1503 153.514 32.974 152.901 32.974C152.318 32.974 151.896 33.1503 151.636 33.503C151.39 33.8403 151.268 34.285 151.268 34.837C151.268 35.3737 151.413 35.78 151.705 36.056C151.996 36.332 152.395 36.47 152.901 36.47C153.989 36.47 154.534 35.918 154.534 34.814Z" fill="white"/>
<defs>
<filter id="filter0_d_1_796" x="0.00195312" y="0" width="176.998" height="83" filterUnits="userSpaceOnUse" color-interpolation-filters="sRGB">
<feFlood flood-opacity="0" result="BackgroundImageFix"/>
<feColorMatrix in="SourceAlpha" type="matrix" values="0 0 0 0 0 0 0 0 0 0 0 0 0 0 0 0 0 0 127 0" result="hardAlpha"/>
<feOffset dx="-4" dy="4"/>
<feComposite in2="hardAlpha" operator="out"/>
<feColorMatrix type="matrix" values="0 0 0 0 0.439216 0 0 0 0 0.521569 0 0 0 0 0.431373 0 0 0 1 0"/>
<feBlend mode="normal" in2="BackgroundImageFix" result="effect1_dropShadow_1_796"/>
<feBlend mode="normal" in="SourceGraphic" in2="effect1_dropShadow_1_796" result="shape"/>
</filter>
</defs>
</svg>
